<svg width="614" height="326" viewBox="0 0 614 326" fill="none" xmlns="http://www.w3.org/2000/svg">
<path fill-rule="evenodd" clip-rule="evenodd" d="M158.709 285.842L118.626 292.008L97.0421 290.467L61.5836 275.05L40.0002 259.633L24.5834 255.008L9.16669 241.133L4.54166 228.8L3 222.633L6.08334 210.3L9.16669 202.591L18.4167 173.299L30.7501 154.799L46.1669 127.049L60.0419 107.007L69.292 86.9657L80.0837 63.8406L90.8754 57.6739L114.001 56.1322L141.751 70.0072L149.459 74.6323L152.542 105.466L144.834 113.174L143.292 117.799H127.876L124.792 116.257H115.542L110.917 113.174H98.5838L95.5004 110.091L86.2504 136.299L90.8754 154.799C90.8754 154.799 91.9428 172.337 90.8754 181.008C90.3577 185.214 87.7921 193.341 87.7921 193.341L90.8754 194.883C90.8754 194.883 97.0078 183.666 101.667 179.466C105.597 175.924 110.274 172.247 115.542 171.758C123.633 171.006 132.076 174.715 138.667 179.466C142.836 182.471 147.917 191.8 147.917 191.8L155.626 197.966L158.709 285.842Z" fill="#D4895C" stroke="#2B2B2B" stroke-width="5"/>
<path fill-rule="evenodd" clip-rule="evenodd" d="M89.3337 213.383L123.251 228.8L156.527 227.849L156.437 242.997C156.437 242.997 153.554 244.216 152.542 244.216C146.376 244.216 106.292 239.591 106.292 239.591L89.3337 213.383Z" fill="#2B2B2B" stroke="#2B2B2B" stroke-width="2"/>
<path fill-rule="evenodd" clip-rule="evenodd" d="M83.167 247.3L55.4168 265.8L13.7916 242.675L43.0834 244.216L80.0836 230.341L83.167 247.3Z" fill="#2B2B2B" stroke="#2B2B2B" stroke-width="2"/>
<path fill-rule="evenodd" clip-rule="evenodd" d="M158.914 284.857L110.917 287.383L123.251 261.175C123.251 261.175 134.042 250.383 141.751 250.383H157.901L158.914 284.857Z" fill="#2B2B2B" stroke="#2B2B2B" stroke-width="2"/>
<path fill-rule="evenodd" clip-rule="evenodd" d="M93.9588 111.633V86.9657L100.125 96.2158L93.9588 111.633Z" fill="#2B2B2B" stroke="#2B2B2B" stroke-width="2"/>
<path fill-rule="evenodd" clip-rule="evenodd" d="M455.481 285.842L495.564 292.008L517.148 290.467L552.606 275.05L574.19 259.633L589.607 255.008L605.023 241.133L609.648 228.8L611.19 222.633L608.107 210.3L605.023 202.591L595.773 173.299L583.44 154.799L568.023 127.049L554.148 107.007L544.898 86.9657L534.106 63.8406L523.315 57.6739L500.19 56.1322L472.439 70.0073L464.731 74.6323L461.648 105.466L469.356 113.174L470.898 117.799H486.314L489.398 116.257H498.648L503.273 113.174H515.606L518.69 110.091L527.94 136.299L523.315 154.799C523.315 154.799 522.247 172.337 523.315 181.008C523.832 185.214 526.398 193.341 526.398 193.341L523.315 194.883C523.315 194.883 517.182 183.666 512.523 179.466C508.593 175.924 503.916 172.247 498.648 171.758C490.557 171.006 482.114 174.715 475.523 179.466C471.354 182.471 466.273 191.8 466.273 191.8L458.564 197.966L455.481 285.842Z" fill="#D4895C" stroke="#2B2B2B" stroke-width="5"/>
<path fill-rule="evenodd" clip-rule="evenodd" d="M524.856 213.383L490.94 228.8L457.664 227.849L457.753 242.997C457.753 242.997 460.636 244.216 461.648 244.216C467.814 244.216 507.898 239.591 507.898 239.591L524.856 213.383Z" fill="#2B2B2B" stroke="#2B2B2B" stroke-width="2"/>
<path fill-rule="evenodd" clip-rule="evenodd" d="M531.023 247.3L558.773 265.8L600.398 242.675L571.107 244.216L534.106 230.341L531.023 247.3Z" fill="#2B2B2B" stroke="#2B2B2B" stroke-width="2"/>
<path fill-rule="evenodd" clip-rule="evenodd" d="M455.276 284.857L503.273 287.383L490.939 261.175C490.939 261.175 480.148 250.383 472.439 250.383H456.289L455.276 284.857Z" fill="#2B2B2B" stroke="#2B2B2B" stroke-width="2"/>
<path fill-rule="evenodd" clip-rule="evenodd" d="M520.231 111.633V86.9657L514.065 96.2158L520.231 111.633Z" fill="#2B2B2B" stroke="#2B2B2B" stroke-width="2"/>
<path d="M449.618 3H164.46C162.142 3 160.264 4.65914 160.264 6.70579V206.236C160.264 208.283 162.142 209.942 164.46 209.942H449.618C451.935 209.942 453.814 208.283 453.814 206.236V6.70579C453.814 4.65914 451.935 3 449.618 3Z" fill="url(#paint0_linear_2_3)" stroke="#202526" stroke-width="4.84666" stroke-linecap="square" stroke-linejoin="round"/>
<path fill-rule="evenodd" clip-rule="evenodd" d="M162.53 199.91L137.583 299.465C135.919 304.082 133.897 308.42 135.508 311.214L142.29 323H467.073L475.651 312.2C478 309.248 477.112 304.21 475.545 298.524L456.717 200.852C456.22 198.163 454.066 196.717 451.069 195.911L173.357 196.145C167.928 195.821 165.075 195.949 162.53 199.91Z" fill="#2E3436" stroke="#202526" stroke-width="4.84666" stroke-linecap="square" stroke-linejoin="round"/>
<path opacity="0.85" d="M177.126 208.165L169.858 255.362C165.059 262.336 170.431 265.876 174.117 266.516H382.573L383.236 274.507H445.436C450.805 272.262 456.431 269.235 453.102 262.901L443.387 208.609C442.935 207.336 440.985 206.651 438.274 206.267L186.92 206.38C182.008 206.221 179.427 206.282 177.124 208.165H177.126Z" stroke="#171B1C" stroke-width="2.42333" stroke-linecap="square" stroke-linejoin="round"/>
<path d="M198.683 221.811H176.63V233.194H198.683V221.811Z" fill="#555753" stroke="#222728" stroke-width="2.36823" stroke-linecap="square" stroke-linejoin="round"/>
<path d="M217.122 221.811H201.06V233.194H217.122V221.811Z" fill="#555753" stroke="#222728" stroke-width="2.36823" stroke-linecap="square" stroke-linejoin="round"/>
<path d="M235.844 221.811H219.783V233.194H235.844V221.811Z" fill="#555753" stroke="#222728" stroke-width="2.36823" stroke-linecap="square" stroke-linejoin="round"/>
<path d="M254.153 221.811H238.091V233.194H254.153V221.811Z" fill="#555753" stroke="#222728" stroke-width="2.36823" stroke-linecap="square" stroke-linejoin="round"/>
<path d="M273.786 221.811H257.725V233.194H273.786V221.811Z" fill="#555753" stroke="#222728" stroke-width="2.36823" stroke-linecap="square" stroke-linejoin="round"/>
<path d="M292.426 221.811H276.364V233.194H292.426V221.811Z" fill="#555753" stroke="#222728" stroke-width="2.36823" stroke-linecap="square" stroke-linejoin="round"/>
<path d="M311.066 221.811H295.004V233.194H311.066V221.811Z" fill="#555753" stroke="#222728" stroke-width="2.36823" stroke-linecap="square" stroke-linejoin="round"/>
<path d="M330.7 221.811H314.638V233.194H330.7V221.811Z" fill="#555753" stroke="#222728" stroke-width="2.36823" stroke-linecap="square" stroke-linejoin="round"/>
<path d="M349.678 221.811H333.616V233.194H349.678V221.811Z" fill="#555753" stroke="#222728" stroke-width="2.36823" stroke-linecap="square" stroke-linejoin="round"/>
<path d="M368.31 221.811H352.249V233.194H368.31V221.811Z" fill="#555753" stroke="#222728" stroke-width="2.36823" stroke-linecap="square" stroke-linejoin="round"/>
<path d="M386.619 221.811H370.557V233.194H386.619V221.811Z" fill="#555753" stroke="#222728" stroke-width="2.36823" stroke-linecap="square" stroke-linejoin="round"/>
<path d="M405.59 221.811H389.528V233.194H405.59V221.811Z" fill="#555753" stroke="#222728" stroke-width="2.36823" stroke-linecap="square" stroke-linejoin="round"/>
<path d="M424.229 221.811H408.168V233.194H424.229V221.811Z" fill="#555753" stroke="#222728" stroke-width="2.36823" stroke-linecap="square" stroke-linejoin="round"/>
<path d="M441.221 221.811H426.807V233.194H441.221V221.811Z" fill="#555753" stroke="#222728" stroke-width="2.36823" stroke-linecap="square" stroke-linejoin="round"/>
<path d="M206.672 233.552H175.966V244.935H206.672V233.552Z" fill="#555753" stroke="#222728" stroke-width="2.36823" stroke-linecap="square" stroke-linejoin="round"/>
<path d="M225.112 233.552H209.051V244.935H225.112V233.552Z" fill="#555753" stroke="#222728" stroke-width="2.36823" stroke-linecap="square" stroke-linejoin="round"/>
<path d="M243.835 233.552H227.773V244.935H243.835V233.552Z" fill="#555753" stroke="#222728" stroke-width="2.36823" stroke-linecap="square" stroke-linejoin="round"/>
<path d="M262.143 233.552H246.081V244.935H262.143V233.552Z" fill="#555753" stroke="#222728" stroke-width="2.36823" stroke-linecap="square" stroke-linejoin="round"/>
<path d="M281.777 233.552H265.715V244.935H281.777V233.552Z" fill="#555753" stroke="#222728" stroke-width="2.36823" stroke-linecap="square" stroke-linejoin="round"/>
<path d="M300.417 233.552H284.355V244.935H300.417V233.552Z" fill="#555753" stroke="#222728" stroke-width="2.36823" stroke-linecap="square" stroke-linejoin="round"/>
<path d="M319.056 233.552H302.995V244.935H319.056V233.552Z" fill="#555753" stroke="#222728" stroke-width="2.36823" stroke-linecap="square" stroke-linejoin="round"/>
<path d="M338.69 233.552H322.628V244.935H338.69V233.552Z" fill="#555753" stroke="#222728" stroke-width="2.36823" stroke-linecap="square" stroke-linejoin="round"/>
<path d="M357.669 233.552H341.607V244.935H357.669V233.552Z" fill="#555753" stroke="#222728" stroke-width="2.36823" stroke-linecap="square" stroke-linejoin="round"/>
<path d="M376.301 233.552H360.239V244.935H376.301V233.552Z" fill="#555753" stroke="#222728" stroke-width="2.36823" stroke-linecap="square" stroke-linejoin="round"/>
<path d="M394.609 233.552H378.547V244.935H394.609V233.552Z" fill="#555753" stroke="#222728" stroke-width="2.36823" stroke-linecap="square" stroke-linejoin="round"/>
<path d="M413.58 233.552H397.518V244.935H413.58V233.552Z" fill="#555753" stroke="#222728" stroke-width="2.36823" stroke-linecap="square" stroke-linejoin="round"/>
<path d="M442.869 233.552H414.825V244.935H442.869V233.552Z" fill="#545755" stroke="#222728" stroke-width="2.36823" stroke-linecap="square" stroke-linejoin="round"/>
<path d="M436.236 25.3977H177.842C176.34 25.3977 175.123 26.653 175.123 28.2014V180.99C175.123 182.538 176.34 183.794 177.842 183.794H436.236C437.738 183.794 438.955 182.538 438.955 180.99V28.2014C438.955 26.653 437.738 25.3977 436.236 25.3977Z" fill="url(#paint1_linear_2_3)" stroke="#204A87" stroke-width="4.69365" stroke-linecap="square" stroke-linejoin="round"/>
<path d="M228.004 249.526H211.943V260.908H228.004V249.526Z" fill="#555753" stroke="#222728" stroke-width="2.36823" stroke-linecap="square" stroke-linejoin="round"/>
<path d="M247.744 249.526H231.682V260.908H247.744V249.526Z" fill="#555753" stroke="#222728" stroke-width="2.36823" stroke-linecap="square" stroke-linejoin="round"/>
<path d="M344.973 249.526H251.481V260.908H344.973V249.526Z" fill="#555753" stroke="#222728" stroke-width="2.36823" stroke-linecap="square" stroke-linejoin="round"/>
<path d="M365.185 249.526H349.123V260.908H365.185V249.526Z" fill="#555753" stroke="#222728" stroke-width="2.36823" stroke-linecap="square" stroke-linejoin="round"/>
<path d="M384.954 249.526H368.893V260.908H384.954V249.526Z" fill="#555753" stroke="#222728" stroke-width="2.36823" stroke-linecap="square" stroke-linejoin="round"/>
<path d="M405.793 258.473H389.731V268.443H405.793V258.473Z" fill="#555753" stroke="#222728" stroke-width="2.36823" stroke-linecap="square" stroke-linejoin="round"/>
<path d="M423.785 249.059H407.723V258.088H423.785V249.059Z" fill="#555753" stroke="#222728" stroke-width="2.36823" stroke-linecap="square" stroke-linejoin="round"/>
<path d="M425.698 259.392H409.636V268.185H425.698V259.392Z" fill="#555753" stroke="#222728" stroke-width="2.36823" stroke-linecap="square" stroke-linejoin="round"/>
<path d="M445.437 259.181H429.375V268.445H445.437V259.181Z" fill="#555753" stroke="#222728" stroke-width="2.36823" stroke-linecap="square" stroke-linejoin="round"/>
<path d="M208.468 249.526H192.407V260.908H208.468V249.526Z" fill="#555753" stroke="#222728" stroke-width="2.36823" stroke-linecap="square" stroke-linejoin="round"/>
<path d="M188.699 249.526H172.637V260.908H188.699V249.526Z" fill="#555753" stroke="#222728" stroke-width="2.36823" stroke-linecap="square" stroke-linejoin="round"/>
<path d="M195.392 211.456H178.988V222.838H195.392V211.456Z" fill="#555753" stroke="#222728" stroke-width="2.36823" stroke-linecap="square" stroke-linejoin="round"/>
<path d="M213.831 211.456H197.769V222.838H213.831V211.456Z" fill="#555753" stroke="#222728" stroke-width="2.36823" stroke-linecap="square" stroke-linejoin="round"/>
<path d="M232.553 211.456H216.491V222.838H232.553V211.456Z" fill="#555753" stroke="#222728" stroke-width="2.36823" stroke-linecap="square" stroke-linejoin="round"/>
<path d="M250.861 211.456H234.8V222.838H250.861V211.456Z" fill="#555753" stroke="#222728" stroke-width="2.36823" stroke-linecap="square" stroke-linejoin="round"/>
<path d="M270.495 211.456H254.434V222.838H270.495V211.456Z" fill="#555753" stroke="#222728" stroke-width="2.36823" stroke-linecap="square" stroke-linejoin="round"/>
<path d="M289.135 211.456H273.073V222.838H289.135V211.456Z" fill="#555753" stroke="#222728" stroke-width="2.36823" stroke-linecap="square" stroke-linejoin="round"/>
<path d="M307.775 211.456H291.713V222.838H307.775V211.456Z" fill="#555753" stroke="#222728" stroke-width="2.36823" stroke-linecap="square" stroke-linejoin="round"/>
<path d="M327.408 211.456H311.347V222.838H327.408V211.456Z" fill="#555753" stroke="#222728" stroke-width="2.36823" stroke-linecap="square" stroke-linejoin="round"/>
<path d="M346.387 211.456H330.325V222.838H346.387V211.456Z" fill="#555753" stroke="#222728" stroke-width="2.36823" stroke-linecap="square" stroke-linejoin="round"/>
<path d="M365.019 211.456H348.957V222.838H365.019V211.456Z" fill="#555753" stroke="#222728" stroke-width="2.36823" stroke-linecap="square" stroke-linejoin="round"/>
<path d="M383.328 211.456H367.266V222.838H383.328V211.456Z" fill="#555753" stroke="#222728" stroke-width="2.36823" stroke-linecap="square" stroke-linejoin="round"/>
<path d="M402.299 211.456H386.237V222.838H402.299V211.456Z" fill="#555753" stroke="#222728" stroke-width="2.36823" stroke-linecap="square" stroke-linejoin="round"/>
<path d="M420.938 211.456H404.876V222.838H420.938V211.456Z" fill="#555753" stroke="#222728" stroke-width="2.36823" stroke-linecap="square" stroke-linejoin="round"/>
<path d="M439.578 211.456H423.516V222.838H439.578V211.456Z" fill="#555753" stroke="#222728" stroke-width="2.36823" stroke-linecap="square" stroke-linejoin="round"/>
<path opacity="0.75" fill-rule="evenodd" clip-rule="evenodd" d="M262.929 280.373L261.852 292.875H344.695L344.16 281.292C344.04 278.943 342.639 277.858 340.929 277.813H265.083C263.998 277.881 263.29 278.747 262.929 280.373Z" fill="#555753"/>
<path opacity="0.75" fill-rule="evenodd" clip-rule="evenodd" d="M262.929 298.381L261.852 292.875H344.695L344.16 298.667C343.972 300.316 342.209 300.203 340.929 300.406H265.083C264.201 300.527 263.448 300.03 262.929 298.381Z" fill="#555753"/>
<path fill-rule="evenodd" clip-rule="evenodd" d="M138.273 308.314C139.014 313.164 138.298 318.639 144.929 320.967H464.447C468.205 317.382 471.429 315.07 473.44 307.983L138.272 308.314H138.273Z" fill="#2E3436"/>
<path opacity="0.21839" fill-rule="evenodd" clip-rule="evenodd" d="M179.009 30.1575L179.954 134.713C233.572 102.901 380.238 86.084 435.065 84.6305V29.2763L179.005 30.1552L179.009 30.1575Z" fill="url(#paint2_linear_2_3)"/>
<path opacity="0.12" fill-rule="evenodd" clip-rule="evenodd" d="M138.837 307.938H473.192C473.192 312.599 469.517 315.469 466.135 315.469H147.784C140.867 315.469 138.838 307.938 138.838 307.938H138.837Z" fill="#EEEEEC"/>
<path opacity="0.61494" fill-rule="evenodd" clip-rule="evenodd" d="M344.672 307.983L344.695 316.071C344.695 317.51 343.535 318.67 342.097 318.67H264.45C263.012 318.67 261.852 317.51 261.852 316.071V307.923L344.672 307.983Z" fill="black"/>
<path opacity="0.27308" d="M343.516 303.607H305.872C305.219 303.607 304.689 304.772 304.689 306.209V308.537C304.689 309.974 305.219 311.138 305.872 311.138H343.516C344.169 311.138 344.699 309.974 344.699 308.537V306.209C344.699 304.772 344.169 303.607 343.516 303.607Z" fill="#808285"/>
<path opacity="0.27308" d="M301.62 303.607H263.034C262.381 303.607 261.852 304.772 261.852 306.209V308.537C261.852 309.974 262.381 311.138 263.034 311.138H301.62C302.273 311.138 302.803 309.974 302.803 308.537V306.209C302.803 304.772 302.273 303.607 301.62 303.607Z" fill="#808285"/>
<path opacity="0.27" fill-rule="evenodd" clip-rule="evenodd" d="M265.625 264.746L264.518 274.484H299.508L299.274 265.462C299.221 263.632 298.604 262.788 297.858 262.751H266.574C266.099 262.803 265.791 263.481 265.625 264.746Z" fill="#888A85"/>
<path opacity="0.27" fill-rule="evenodd" clip-rule="evenodd" d="M341.795 264.746L342.955 274.484H306.708L306.949 265.462C307.001 263.632 307.641 262.788 308.417 262.751H340.824C341.313 262.803 341.637 263.481 341.795 264.746V264.746Z" fill="#888A85"/>
<path fill-rule="evenodd" clip-rule="evenodd" d="M310.797 247.688C310.797 248.687 310.003 249.645 308.591 250.351C307.179 251.057 305.263 251.454 303.266 251.454C301.268 251.454 299.353 251.057 297.94 250.351C296.528 249.645 295.735 248.687 295.735 247.688C295.735 246.689 296.528 245.732 297.94 245.025C299.353 244.319 301.268 243.922 303.266 243.922C305.263 243.922 307.179 244.319 308.591 245.025C310.003 245.732 310.797 246.689 310.797 247.688Z" fill="#555753" fill-opacity="0.75" stroke="#3465A4" stroke-width="4.84666"/>
<path opacity="0.61923" d="M306.095 262.751H300.223C299.57 262.751 299.041 263.915 299.041 265.352V271.446C299.041 272.883 299.57 274.047 300.223 274.047H306.095C306.748 274.047 307.278 272.883 307.278 271.446V265.352C307.278 263.915 306.748 262.751 306.095 262.751Z" fill="#808285"/>
<path d="M395.531 74.638C395.531 94.9082 379.099 111.341 358.829 111.341C338.558 111.341 322.126 94.9089 322.126 74.638C322.126 54.3677 338.558 37.9348 358.829 37.9348C379.099 37.9348 395.531 54.367 395.531 74.638Z" fill="white" stroke="#484848" stroke-width="6.02656"/>
<path d="M376.105 78.5895C376.194 88.1848 368.44 96.0108 358.845 96.0108C349.249 96.0108 341.495 88.1848 341.584 78.5895C341.495 68.9942 349.249 61.1681 358.845 61.1681C368.44 61.1681 376.194 68.9942 376.105 78.5895Z" fill="#292929"/>
<path d="M216.461 74.638C216.461 94.9082 232.894 111.341 253.164 111.341C273.435 111.341 289.867 94.9089 289.867 74.638C289.867 54.3677 273.434 37.9348 253.164 37.9348C232.893 37.9348 216.461 54.367 216.461 74.638Z" fill="white" stroke="#484848" stroke-width="6.02656"/>
<path d="M235.888 78.5895C235.799 88.1848 243.552 96.0108 253.148 96.0108C262.744 96.0108 270.498 88.1848 270.408 78.5895C270.498 68.9942 262.744 61.1681 253.148 61.1681C243.552 61.1681 235.799 68.9942 235.888 78.5895Z" fill="#292929"/>
<path fill-rule="evenodd" clip-rule="evenodd" d="M224.506 122.46C309.97 235.894 387.665 122.46 387.665 122.46H224.506Z" fill="white" stroke="#484848" stroke-width="5"/>
<path d="M246.754 146.934H365.238" stroke="#484848" stroke-width="5"/>
<path d="M263.459 122.072V159.365" stroke="#484848" stroke-width="5"/>
<path d="M285.213 122.072V170.242" stroke="#484848" stroke-width="5"/>
<path d="M306.967 122.072V173.738" stroke="#484848" stroke-width="5"/>
<path d="M350.476 122.072V159.365" stroke="#484848" stroke-width="5"/>
<path d="M328.722 122.072V170.242" stroke="#484848" stroke-width="5"/>
<defs>
<linearGradient id="paint0_linear_2_3" x1="260.338" y1="-0.758805" x2="307.039" y2="213.715" gradientUnits="userSpaceOnUse">
<stop stop-color="#2E3436"/>
<stop offset="1" stop-color="#080D19"/>
</linearGradient>
<linearGradient id="paint1_linear_2_3" x1="314.846" y1="186.85" x2="314.846" y2="49.5584" gradientUnits="userSpaceOnUse">
<stop stop-color="#3465A4"/>
<stop offset="1" stop-color="#204A87"/>
</linearGradient>
<linearGradient id="paint2_linear_2_3" x1="283.737" y1="21.2901" x2="309.473" y2="117.343" gradientUnits="userSpaceOnUse">
<stop stop-color="white"/>
<stop offset="1" stop-color="white" stop-opacity="0"/>
</linearGradient>
</defs>
</svg>
