<?xml version='1.0' encoding='utf-8'?>
<!-- Generator: imaengine 6.0   -->
<svg viewBox="0,0,1440,1610" xmlns:xlink="http://www.w3.org/1999/xlink" xmlns="http://www.w3.org/2000/svg" width="1440" height="1610" version="1.1">
<defs/>
<g id="layer0">
<path d="M134,1610L142,1610L148,1591L171,1552L171,1388L171,1297L171,1287L171,1189L171,1182L161,1342L161,1388L161,1421L161,1459L161,1504L160,1555L147,1579L134,1610Z" stroke="#c17a18" stroke-width="0.75" stroke-linecap="round" fill="#c17a18" stroke-linejoin="round"/>
<path d="M142,1610L151,1610L157,1596L159,1592L170,1584L172,1569L171,1569L171,1552L148,1591L142,1610Z" stroke="#9c6c2b" stroke-width="0.75" stroke-linecap="round" fill="#9c6c2b" stroke-linejoin="round"/>
<path d="M151,1610L161,1610L170,1584L159,1592L157,1596L151,1610Z" stroke="#7c5c31" stroke-width="0.75" stroke-linecap="round" fill="#7c5c31" stroke-linejoin="round"/>
<path d="M161,1610L351,1610L346,1591L357,1584L373,1579L403,1610L493,1610L494,1563L494,1555L497,1540L522,1518L529,1516L547,1509L573,1498L614,1498L632,1519L636,1526L653,1558L657,1564L667,1574L698,1610L889,1610L892,1560L886,1516L870,1481L848,1453L828,1431L812,1409L648,1261L609,1310L625,1232L634,1180L662,1134L688,1099L705,1060L717,1023L727,993L741,973L747,945L747,926L753,910L758,895L775,886L780,870L784,848L783,828L777,811L775,749L776,730L762,639L734,573L696,530L662,496L639,464L615,444L597,420L591,386L597,353L602,327L589,328L579,340L572,350L570,366L569,385L566,398L562,408L548,418L414,463L495,449L585,445L637,494L691,541L728,586L751,633L762,685L769,737L763,784L752,813L745,836L739,854L733,874L739,896L748,910L584,1073L522,1106L531,1117L538,1176L453,1181L399,1210L391,1220L368,1250L348,1293L331,1332L308,1359L269,1373L234,1357L213,1335L225,1308L235,1284L244,1263L252,1243L257,1225L261,1189L262,1153L261,1130L259,1108L216,1100L195,1135L192,1129L189,1134L188,1136L188,1137L181,1182L180,1198L181,1204L185,1204L175,1288L171,1287L171,1297L180,1294L180,1312L180,1526L172,1569L170,1584L161,1610Z" stroke="#655347" stroke-width="0.75" stroke-linecap="round" fill="#655347" stroke-linejoin="round"/>
<path d="M351,1610L403,1610L373,1579L357,1584L346,1591L351,1610Z" stroke="#362e2c" stroke-width="0.75" stroke-linecap="round" fill="#362e2c" stroke-linejoin="round"/>
<path d="M493,1610L494,1610L494,1594L494,1563L493,1610Z" stroke="#8a5c57" stroke-width="0.75" stroke-linecap="round" fill="#8a5c57" stroke-linejoin="round"/>
<path d="M494,1610L498,1610L496,1593L494,1594L494,1610Z" stroke="#b6575d" stroke-width="0.75" stroke-linecap="round" fill="#b6575d" stroke-linejoin="round"/>
<path d="M498,1610L571,1610L646,1600L669,1610L693,1610L665,1575L664,1575L657,1564L653,1558L652,1558L636,1526L632,1519L630,1520L617,1505L610,1528L612,1543L579,1561L572,1501L548,1512L547,1510L529,1517L529,1516L522,1518L498,1543L497,1540L494,1555L496,1593L498,1610Z" stroke="#dd4059" stroke-width="0.75" stroke-linecap="round" fill="#dd4059" stroke-linejoin="round"/>
<path d="M571,1610L644,1610L646,1600L571,1610Z" stroke="#ad2f41" stroke-width="0.75" stroke-linecap="round" fill="#ad2f41" stroke-linejoin="round"/>
<path d="M644,1610L669,1610L646,1600L644,1610Z" stroke="#9a2e3d" stroke-width="0.75" stroke-linecap="round" fill="#9a2e3d" stroke-linejoin="round"/>
<path d="M693,1610L698,1610L667,1574L665,1575L693,1610Z" stroke="#8a3d40" stroke-width="0.75" stroke-linecap="round" fill="#8a3d40" stroke-linejoin="round"/>
<path d="M889,1610L1335,1610L1335,1380L1335,1335L1335,1325L1335,1318L1334,1318L1325,1204L1324,1204L1324,1200L1318,1201L1287,1147L1273,1177L1266,1204L1263,1228L1256,1246L1242,1257L1228,1284L1217,1306L1213,1323L1212,1339L1147,1373L1129,1321L1112,1272L1083,1244L1074,1204L1080,1167L1096,1150L1117,1141L1133,1124L1148,1107L1165,1096L1181,1093L1188,1116L1183,1134L1180,1152L1185,1166L1195,1167L1208,1077L1207,1077L1194,1061L1180,1051L1160,1037L1144,1028L1044,989L1042,989L980,946L976,946L964,930L954,916L953,918L928,878L909,846L897,820L892,795L884,769L883,729L884,699L883,674L819,426L796,386L794,386L759,343L747,328L741,328L722,306L702,296L678,289L656,281L637,276L606,270L472,308L471,307L381,368L380,369L373,378L366,386L343,413L337,415L315,444L313,446L286,492L271,549L264,602L255,642L245,686L237,730L237,775L240,810L246,835L253,857L228,1061L223,1066L216,1100L259,1108L261,1130L262,1153L261,1189L257,1225L252,1243L244,1263L235,1284L225,1308L213,1335L234,1357L269,1373L308,1359L331,1332L348,1293L368,1250L391,1220L399,1210L453,1181L538,1176L531,1117L522,1106L506,1106L458,1094L387,1029L385,1029L351,987L288,781L286,781L285,764L284,720L285,684L289,657L400,471L414,463L548,418L562,408L566,398L569,385L570,366L572,350L579,340L589,328L602,327L597,353L591,386L597,420L615,444L639,464L662,496L696,530L734,573L762,639L776,730L775,749L777,811L783,828L784,848L780,870L775,886L758,895L753,910L747,926L747,945L741,973L727,993L717,1023L705,1060L688,1099L662,1134L634,1180L625,1232L637,1212L650,1200L662,1190L670,1188L648,1261L812,1409L828,1431L848,1453L870,1481L886,1516L892,1560L889,1610Z" stroke="#433830" stroke-width="0.75" stroke-linecap="round" fill="#433830" stroke-linejoin="round"/>
<path d="M1335,1610L1336,1610L1335,1380L1335,1610Z" stroke="#644f32" stroke-width="0.75" stroke-linecap="round" fill="#644f32" stroke-linejoin="round"/>
<path d="M1336,1610L1345,1610L1345,1312L1345,1285L1337,1286L1336,1284L1336,1325L1335,1335L1335,1380L1336,1610Z" stroke="#886530" stroke-width="0.75" stroke-linecap="round" fill="#886530" stroke-linejoin="round"/>
<path d="M1345,1610L1346,1610L1345,1312L1345,1610Z" stroke="#ac7629" stroke-width="0.75" stroke-linecap="round" fill="#ac7629" stroke-linejoin="round"/>
<path d="M1346,1610L1354,1610L1354,1265L1345,1255L1345,1285L1345,1312L1346,1610Z" stroke="#ca831e" stroke-width="0.75" stroke-linecap="round" fill="#ca831e" stroke-linejoin="round"/>
<path d="M157,1596L159,1592L157,1596Z" stroke="#93672b" stroke-width="0.75" stroke-linecap="round" fill="#93672b" stroke-linejoin="round"/>
<path d="M494,1594L496,1593L494,1555L494,1563L494,1594Z" stroke="#ad5559" stroke-width="0.75" stroke-linecap="round" fill="#ad5559" stroke-linejoin="round"/>
<path d="M664,1575L665,1575L667,1574L657,1564L664,1575Z" stroke="#944546" stroke-width="0.75" stroke-linecap="round" fill="#944546" stroke-linejoin="round"/>
<path d="M171,1569L172,1569L180,1526L180,1493L180,1469L180,1442L171,1388L171,1552L171,1569Z" stroke="#946833" stroke-width="0.75" stroke-linecap="round" fill="#946833" stroke-linejoin="round"/>
<path d="M579,1561L612,1543L610,1528L617,1505L614,1498L573,1498L572,1501L579,1561Z" stroke="#a82e3e" stroke-width="0.75" stroke-linecap="round" fill="#a82e3e" stroke-linejoin="round"/>
<path d="M652,1558L653,1558L636,1526L652,1558Z" stroke="#9f4b4e" stroke-width="0.75" stroke-linecap="round" fill="#9f4b4e" stroke-linejoin="round"/>
<path d="M498,1543L522,1518L497,1540L498,1543Z" stroke="#9a5653" stroke-width="0.75" stroke-linecap="round" fill="#9a5653" stroke-linejoin="round"/>
<path d="M180,1526L180,1312L180,1294L171,1297L171,1388L180,1442L180,1469L180,1493L180,1526Z" stroke="#7b5528" stroke-width="0.75" stroke-linecap="round" fill="#7b5528" stroke-linejoin="round"/>
<path d="M630,1520L632,1519L614,1498L617,1505L630,1520Z" stroke="#8d5b54" stroke-width="0.75" stroke-linecap="round" fill="#8d5b54" stroke-linejoin="round"/>
<path d="M529,1517L547,1510L547,1509L529,1516L529,1517Z" stroke="#976059" stroke-width="0.75" stroke-linecap="round" fill="#976059" stroke-linejoin="round"/>
<path d="M548,1512L572,1501L573,1498L547,1509L547,1510L548,1512Z" stroke="#9b5f59" stroke-width="0.75" stroke-linecap="round" fill="#9b5f59" stroke-linejoin="round"/>
<path d="M627,1441L607,1368L603,1388L603,1406L627,1441Z" stroke="#594f5b" stroke-width="0.75" stroke-linecap="round" fill="#594f5b" stroke-linejoin="round"/>
<path d="M1147,1373L1212,1339L1213,1323L1217,1306L1228,1284L1242,1257L1256,1246L1263,1228L1266,1204L1273,1177L1287,1147L1267,1114L1241,1092L1239,1094L1237,1088L1226,1081L1222,1082L1221,1077L1214,1072L1208,1077L1195,1167L1185,1166L1180,1152L1183,1134L1188,1116L1181,1093L1165,1096L1148,1107L1133,1124L1117,1141L1096,1150L1080,1167L1074,1204L1083,1244L1112,1272L1129,1321L1147,1373Z" stroke="#837362" stroke-width="0.75" stroke-linecap="round" fill="#837362" stroke-linejoin="round"/>
<path d="M1335,1335L1336,1325L1335,1325L1335,1335Z" stroke="#63523b" stroke-width="0.75" stroke-linecap="round" fill="#63523b" stroke-linejoin="round"/>
<path d="M1335,1325L1336,1325L1336,1284L1335,1231L1335,1318L1335,1325Z" stroke="#8c642c" stroke-width="0.75" stroke-linecap="round" fill="#8c642c" stroke-linejoin="round"/>
<path d="M1334,1318L1335,1318L1335,1231L1330,1203L1327,1204L1326,1200L1325,1204L1334,1318Z" stroke="#77582e" stroke-width="0.75" stroke-linecap="round" fill="#77582e" stroke-linejoin="round"/>
<path d="M180,1312L180,1294L180,1312Z" stroke="#705231" stroke-width="0.75" stroke-linecap="round" fill="#705231" stroke-linejoin="round"/>
<path d="M609,1310L648,1261L670,1188L662,1190L650,1200L637,1212L625,1232L609,1310Z" stroke="#7b5b4b" stroke-width="0.75" stroke-linecap="round" fill="#7b5b4b" stroke-linejoin="round"/>
<path d="M175,1288L185,1204L181,1204L180,1198L181,1182L181,1172L171,1189L171,1287L175,1288Z" stroke="#895e26" stroke-width="0.75" stroke-linecap="round" fill="#895e26" stroke-linejoin="round"/>
<path d="M1337,1286L1345,1285L1345,1255L1208,1054L1185,1036L1158,1017L1126,1003L1088,991L1084,991L978,916L917,792L907,778L908,796L920,836L926,842L941,872L954,897L981,939L991,945L1013,963L1046,981L1101,1004L1133,1013L1330,1203L1335,1231L1336,1284L1337,1286Z" stroke="#c27c19" stroke-width="0.75" stroke-linecap="round" fill="#c27c19" stroke-linejoin="round"/>
<path d="M1324,1204L1325,1204L1326,1200L1324,1195L1324,1200L1324,1204Z" stroke="#805f32" stroke-width="0.75" stroke-linecap="round" fill="#805f32" stroke-linejoin="round"/>
<path d="M1327,1204L1330,1203L1133,1013L1101,1004L1214,1072L1221,1077L1226,1081L1237,1088L1241,1092L1267,1114L1324,1195L1326,1200L1327,1204Z" stroke="#ab752a" stroke-width="0.75" stroke-linecap="round" fill="#ab752a" stroke-linejoin="round"/>
<path d="M1318,1201L1324,1200L1324,1195L1267,1114L1287,1147L1318,1201Z" stroke="#896a3f" stroke-width="0.75" stroke-linecap="round" fill="#896a3f" stroke-linejoin="round"/>
<path d="M171,1189L181,1172L188,1137L188,1136L187,1136L187,1131L194,1107L201,1086L212,1058L225,1038L235,1023L246,1005L266,974L262,912L247,858L234,817L231,823L247,989L240,1001L232,1015L221,1029L210,1047L199,1068L189,1096L177,1131L171,1182L171,1189Z" stroke="#c07713" stroke-width="0.75" stroke-linecap="round" fill="#c07713" stroke-linejoin="round"/>
<path d="M181,1182L188,1137L181,1172L181,1182Z" stroke="#8c6330" stroke-width="0.75" stroke-linecap="round" fill="#8c6330" stroke-linejoin="round"/>
<path d="M187,1136L188,1136L189,1134L188,1134L187,1131L187,1136Z" stroke="#b3711a" stroke-width="0.75" stroke-linecap="round" fill="#b3711a" stroke-linejoin="round"/>
<path d="M195,1135L216,1100L223,1066L226,1059L256,1006L192,1129L195,1135Z" stroke="#785124" stroke-width="0.75" stroke-linecap="round" fill="#785124" stroke-linejoin="round"/>
<path d="M188,1134L189,1134L192,1129L256,1006L265,982L266,974L246,1005L235,1023L225,1038L212,1058L201,1086L194,1107L187,1131L188,1134Z" stroke="#9d641a" stroke-width="0.75" stroke-linecap="round" fill="#9d641a" stroke-linejoin="round"/>
<path d="M506,1106L522,1106L584,1073L558,1080L497,1097L487,1095L461,1095L458,1094L506,1106Z" stroke="#93695a" stroke-width="0.75" stroke-linecap="round" fill="#93695a" stroke-linejoin="round"/>
<path d="M497,1097L558,1080L557,1080L549,1057L540,1038L518,1036L490,1034L449,1003L416,976L432,953L438,948L475,943L478,944L524,950L593,970L645,944L676,908L693,873L708,844L718,820L727,801L732,781L734,759L732,738L712,720L696,720L684,734L670,744L651,751L621,727L619,705L603,710L588,718L581,728L578,705L584,691L601,684L626,676L650,677L670,681L679,672L661,625L649,626L658,624L636,625L618,627L561,616L577,607L494,636L390,622L408,627L416,629L435,656L410,651L390,646L370,644L349,640L344,621L344,579L360,566L382,550L400,530L422,517L445,510L470,510L489,516L500,526L524,535L620,601L622,604L664,604L654,571L634,547L615,525L594,530L568,513L544,500L522,492L502,486L483,483L341,542L338,548L289,753L288,781L351,987L387,1027L403,1045L415,1058L424,1069L487,1095L497,1097Z" stroke="#e9b89f" stroke-width="0.75" stroke-linecap="round" fill="#e9b89f" stroke-linejoin="round"/>
<path d="M461,1095L487,1095L424,1069L415,1058L403,1045L387,1027L387,1029L458,1094L461,1095Z" stroke="#c2907c" stroke-width="0.75" stroke-linecap="round" fill="#c2907c" stroke-linejoin="round"/>
<path d="M1239,1094L1241,1092L1237,1088L1239,1094Z" stroke="#9a7849" stroke-width="0.75" stroke-linecap="round" fill="#9a7849" stroke-linejoin="round"/>
<path d="M1222,1082L1226,1081L1221,1077L1222,1082Z" stroke="#91744e" stroke-width="0.75" stroke-linecap="round" fill="#91744e" stroke-linejoin="round"/>
<path d="M557,1080L558,1080L584,1073L748,910L739,896L733,874L739,854L745,836L752,813L763,784L769,737L762,685L751,633L728,586L691,541L637,494L585,445L495,449L480,456L368,506L366,504L340,541L341,542L483,483L502,486L522,492L544,500L568,513L594,530L615,525L634,547L654,571L664,604L622,604L561,616L618,627L636,625L658,624L661,625L679,672L670,681L650,677L626,676L601,684L584,691L578,705L588,701L600,697L607,697L632,690L657,688L673,691L661,732L654,724L628,733L621,727L651,751L670,744L684,734L696,720L712,720L732,738L734,759L732,781L727,801L718,820L708,844L693,873L676,908L645,944L593,970L576,981L572,984L565,981L560,981L567,990L470,1006L449,1003L490,1034L518,1036L540,1038L549,1057L557,1080Z" stroke="#ab7a66" stroke-width="0.75" stroke-linecap="round" fill="#ab7a66" stroke-linejoin="round"/>
<path d="M1207,1077L1208,1077L1214,1072L1101,1004L1046,981L1045,984L1044,989L1144,1028L1160,1037L1180,1051L1194,1061L1207,1077Z" stroke="#846034" stroke-width="0.75" stroke-linecap="round" fill="#846034" stroke-linejoin="round"/>
<path d="M223,1066L228,1061L226,1059L223,1066Z" stroke="#573d23" stroke-width="0.75" stroke-linecap="round" fill="#573d23" stroke-linejoin="round"/>
<path d="M228,1061L253,857L246,835L240,810L237,775L237,730L245,686L255,642L264,602L271,549L286,492L268,529L266,547L247,626L232,811L233,814L234,817L247,858L266,907L271,985L265,982L256,1006L226,1059L228,1061Z" stroke="#5a3e1f" stroke-width="0.75" stroke-linecap="round" fill="#5a3e1f" stroke-linejoin="round"/>
<path d="M385,1029L387,1029L387,1027L351,987L385,1029Z" stroke="#a87e6b" stroke-width="0.75" stroke-linecap="round" fill="#a87e6b" stroke-linejoin="round"/>
<path d="M470,1006L567,990L560,981L553,981L416,976L449,1003L470,1006Z" stroke="#e49396" stroke-width="0.75" stroke-linecap="round" fill="#e49396" stroke-linejoin="round"/>
<path d="M1084,991L1088,991L978,916L1084,991Z" stroke="#d38314" stroke-width="0.75" stroke-linecap="round" fill="#d38314" stroke-linejoin="round"/>
<path d="M1042,989L1044,989L1045,984L1044,984L1011,963L1010,963L991,945L981,939L979,942L980,946L1042,989Z" stroke="#6f4f2a" stroke-width="0.75" stroke-linecap="round" fill="#6f4f2a" stroke-linejoin="round"/>
<path d="M271,985L266,907L262,912L266,974L265,982L271,985Z" stroke="#6f491b" stroke-width="0.75" stroke-linecap="round" fill="#6f491b" stroke-linejoin="round"/>
<path d="M572,984L576,981L565,981L572,984Z" stroke="#cf7e7e" stroke-width="0.75" stroke-linecap="round" fill="#cf7e7e" stroke-linejoin="round"/>
<path d="M1044,984L1045,984L1046,981L1013,963L1011,963L1044,984Z" stroke="#9b6827" stroke-width="0.75" stroke-linecap="round" fill="#9b6827" stroke-linejoin="round"/>
<path d="M553,981L560,981L565,981L576,981L593,970L524,950L489,950L478,948L477,948L473,945L439,951L432,953L416,976L553,981Z" stroke="#b06763" stroke-width="0.75" stroke-linecap="round" fill="#b06763" stroke-linejoin="round"/>
<path d="M1010,963L1011,963L1013,963L991,945L1010,963Z" stroke="#b0711e" stroke-width="0.75" stroke-linecap="round" fill="#b0711e" stroke-linejoin="round"/>
<path d="M432,953L439,951L438,948L432,953Z" stroke="#eab59d" stroke-width="0.75" stroke-linecap="round" fill="#eab59d" stroke-linejoin="round"/>
<path d="M439,951L473,945L475,943L438,948L439,951Z" stroke="#e8b19c" stroke-width="0.75" stroke-linecap="round" fill="#e8b19c" stroke-linejoin="round"/>
<path d="M489,950L524,950L478,944L478,948L489,950Z" stroke="#d79386" stroke-width="0.75" stroke-linecap="round" fill="#d79386" stroke-linejoin="round"/>
<path d="M477,948L478,948L478,944L475,943L473,945L477,948Z" stroke="#dd9d8e" stroke-width="0.75" stroke-linecap="round" fill="#dd9d8e" stroke-linejoin="round"/>
<path d="M976,946L980,946L979,942L978,942L964,930L976,946Z" stroke="#513c26" stroke-width="0.75" stroke-linecap="round" fill="#513c26" stroke-linejoin="round"/>
<path d="M978,942L979,942L981,939L954,897L953,897L941,874L939,874L925,842L922,842L920,836L908,796L907,796L900,794L900,802L954,916L964,930L978,942Z" stroke="#7d541d" stroke-width="0.75" stroke-linecap="round" fill="#7d541d" stroke-linejoin="round"/>
<path d="M953,918L954,916L900,802L898,802L897,794L873,624L870,614L864,590L854,555L847,526L842,505L835,477L819,426L883,674L884,699L883,729L884,769L892,795L897,820L909,846L928,878L953,918Z" stroke="#503a1f" stroke-width="0.75" stroke-linecap="round" fill="#503a1f" stroke-linejoin="round"/>
<path d="M494,917L509,913L535,908L547,893L533,882L511,880L483,880L450,896L463,905L494,917Z" stroke="#b77c6f" stroke-width="0.75" stroke-linecap="round" fill="#b77c6f" stroke-linejoin="round"/>
<path d="M262,912L266,907L247,858L262,912Z" stroke="#85561c" stroke-width="0.75" stroke-linecap="round" fill="#85561c" stroke-linejoin="round"/>
<path d="M461,905L463,905L450,896L461,905Z" stroke="#bf8577" stroke-width="0.75" stroke-linecap="round" fill="#bf8577" stroke-linejoin="round"/>
<path d="M953,897L954,897L941,872L941,874L953,897Z" stroke="#bf7712" stroke-width="0.75" stroke-linecap="round" fill="#bf7712" stroke-linejoin="round"/>
<path d="M939,874L941,874L941,872L926,842L925,842L939,874Z" stroke="#ab6c15" stroke-width="0.75" stroke-linecap="round" fill="#ab6c15" stroke-linejoin="round"/>
<path d="M480,864L506,853L508,824L504,799L489,705L475,729L471,758L466,777L480,864Z" stroke="#f9ecd2" stroke-width="0.75" stroke-linecap="round" fill="#f9ecd2" stroke-linejoin="round"/>
<path d="M922,842L925,842L926,842L920,836L922,842Z" stroke="#b87312" stroke-width="0.75" stroke-linecap="round" fill="#b87312" stroke-linejoin="round"/>
<path d="M231,823L234,817L233,814L231,819L231,823Z" stroke="#a36a1d" stroke-width="0.75" stroke-linecap="round" fill="#a36a1d" stroke-linejoin="round"/>
<path d="M230,819L231,819L233,814L232,811L230,814L230,819Z" stroke="#a66c1d" stroke-width="0.75" stroke-linecap="round" fill="#a66c1d" stroke-linejoin="round"/>
<path d="M230,814L232,811L247,626L248,605L247,605L247,595L246,588L236,630L231,652L219,710L219,734L219,758L221,789L230,814Z" stroke="#ad6c13" stroke-width="0.75" stroke-linecap="round" fill="#ad6c13" stroke-linejoin="round"/>
<path d="M898,802L900,802L900,794L900,790L897,794L898,802Z" stroke="#7b521a" stroke-width="0.75" stroke-linecap="round" fill="#7b521a" stroke-linejoin="round"/>
<path d="M907,796L908,796L907,778L840,438L828,414L811,387L788,355L756,318L703,282L626,260L625,264L636,266L662,271L729,303L771,340L797,376L817,405L831,435L842,469L849,504L857,535L866,560L871,584L877,604L900,790L900,794L907,796Z" stroke="#c1770d" stroke-width="0.75" stroke-linecap="round" fill="#c1770d" stroke-linejoin="round"/>
<path d="M897,794L900,790L877,604L871,584L866,560L857,535L849,504L842,469L831,435L817,405L797,376L771,340L729,303L662,271L656,271L733,310L738,315L747,326L747,328L759,343L796,386L819,426L835,477L842,505L847,526L854,555L864,590L870,614L873,624L897,794Z" stroke="#8c5a16" stroke-width="0.75" stroke-linecap="round" fill="#8c5a16" stroke-linejoin="round"/>
<path d="M286,781L288,781L289,753L286,774L286,746L286,733L286,718L285,764L286,781Z" stroke="#a57c6a" stroke-width="0.75" stroke-linecap="round" fill="#a57c6a" stroke-linejoin="round"/>
<path d="M305,778L306,768L305,778Z" stroke="#f4d0b2" stroke-width="0.75" stroke-linecap="round" fill="#f4d0b2" stroke-linejoin="round"/>
<path d="M286,774L289,753L338,548L340,541L366,504L400,471L289,657L285,684L284,720L285,764L286,718L286,733L286,746L286,774Z" stroke="#795747" stroke-width="0.75" stroke-linecap="round" fill="#795747" stroke-linejoin="round"/>
<path d="M775,749L776,730L775,749Z" stroke="#44332b" stroke-width="0.75" stroke-linecap="round" fill="#44332b" stroke-linejoin="round"/>
<path d="M377,745L390,733L382,718L337,725L377,745Z" stroke="#b18d87" stroke-width="0.75" stroke-linecap="round" fill="#b18d87" stroke-linejoin="round"/>
<path d="M396,735L417,733L423,730L427,714L330,715L332,721L337,725L382,718L390,733L396,735Z" stroke="#6c5049" stroke-width="0.75" stroke-linecap="round" fill="#6c5049" stroke-linejoin="round"/>
<path d="M417,733L423,730L417,733Z" stroke="#a37666" stroke-width="0.75" stroke-linecap="round" fill="#a37666" stroke-linejoin="round"/>
<path d="M628,733L654,724L660,712L672,712L684,711L619,705L621,727L628,733Z" stroke="#5e453f" stroke-width="0.75" stroke-linecap="round" fill="#5e453f" stroke-linejoin="round"/>
<path d="M661,732L673,691L657,688L632,690L607,697L603,699L589,702L588,701L578,705L581,728L588,718L603,710L619,705L684,711L672,712L660,712L654,724L661,732Z" stroke="#95695e" stroke-width="0.75" stroke-linecap="round" fill="#95695e" stroke-linejoin="round"/>
<path d="M330,721L332,721L330,715L330,721Z" stroke="#ba8c7b" stroke-width="0.75" stroke-linecap="round" fill="#ba8c7b" stroke-linejoin="round"/>
<path d="M328,717L330,715L427,714L328,717Z" stroke="#bb8b77" stroke-width="0.75" stroke-linecap="round" fill="#bb8b77" stroke-linejoin="round"/>
<path d="M589,702L603,699L600,697L588,701L589,702Z" stroke="#b08070" stroke-width="0.75" stroke-linecap="round" fill="#b08070" stroke-linejoin="round"/>
<path d="M603,699L607,697L600,697L603,699Z" stroke="#b98775" stroke-width="0.75" stroke-linecap="round" fill="#b98775" stroke-linejoin="round"/>
<path d="M435,656L416,629L412,629L408,627L390,622L382,622L373,622L373,621L344,621L349,640L370,644L390,646L410,651L435,656Z" stroke="#aa8171" stroke-width="0.75" stroke-linecap="round" fill="#aa8171" stroke-linejoin="round"/>
<path d="M231,652L236,630L231,652Z" stroke="#cf7f0c" stroke-width="0.75" stroke-linecap="round" fill="#cf7f0c" stroke-linejoin="round"/>
<path d="M494,636L577,607L620,601L524,535L500,526L489,516L470,510L445,510L422,517L400,530L382,550L360,566L344,579L344,621L373,621L382,622L390,622L494,636Z" stroke="#f8eace" stroke-width="0.75" stroke-linecap="round" fill="#f8eace" stroke-linejoin="round"/>
<path d="M412,629L416,629L408,627L412,629Z" stroke="#edceb6" stroke-width="0.75" stroke-linecap="round" fill="#edceb6" stroke-linejoin="round"/>
<path d="M247,626L266,547L268,529L249,597L248,605L247,626Z" stroke="#764c18" stroke-width="0.75" stroke-linecap="round" fill="#764c18" stroke-linejoin="round"/>
<path d="M649,626L661,625L658,624L649,626Z" stroke="#cb9b86" stroke-width="0.75" stroke-linecap="round" fill="#cb9b86" stroke-linejoin="round"/>
<path d="M873,624L870,614L873,624Z" stroke="#855719" stroke-width="0.75" stroke-linecap="round" fill="#855719" stroke-linejoin="round"/>
<path d="M373,622L382,622L373,621L373,622Z" stroke="#f4dcbe" stroke-width="0.75" stroke-linecap="round" fill="#f4dcbe" stroke-linejoin="round"/>
<path d="M561,616L622,604L620,601L577,607L561,616Z" stroke="#c7a08e" stroke-width="0.75" stroke-linecap="round" fill="#c7a08e" stroke-linejoin="round"/>
<path d="M247,605L248,605L249,597L248,597L247,595L247,605Z" stroke="#a86812" stroke-width="0.75" stroke-linecap="round" fill="#a86812" stroke-linejoin="round"/>
<path d="M248,597L249,597L268,529L267,523L252,554L246,588L247,595L248,597Z" stroke="#9f6313" stroke-width="0.75" stroke-linecap="round" fill="#9f6313" stroke-linejoin="round"/>
<path d="M252,554L267,523L291,469L289,469L288,468L252,554Z" stroke="#c4790f" stroke-width="0.75" stroke-linecap="round" fill="#c4790f" stroke-linejoin="round"/>
<path d="M338,548L341,542L340,541L338,548Z" stroke="#af816b" stroke-width="0.75" stroke-linecap="round" fill="#af816b" stroke-linejoin="round"/>
<path d="M268,529L286,492L313,446L309,446L307,445L291,469L267,523L268,529Z" stroke="#875718" stroke-width="0.75" stroke-linecap="round" fill="#875718" stroke-linejoin="round"/>
<path d="M368,506L480,456L495,449L414,463L400,471L366,504L368,506Z" stroke="#8d6755" stroke-width="0.75" stroke-linecap="round" fill="#8d6755" stroke-linejoin="round"/>
<path d="M289,469L291,469L307,445L309,441L333,410L330,410L288,468L289,469Z" stroke="#cb7d10" stroke-width="0.75" stroke-linecap="round" fill="#cb7d10" stroke-linejoin="round"/>
<path d="M309,446L313,446L315,444L312,444L309,441L307,445L309,446Z" stroke="#935f1a" stroke-width="0.75" stroke-linecap="round" fill="#935f1a" stroke-linejoin="round"/>
<path d="M312,444L315,444L337,415L342,408L361,386L362,384L378,366L406,341L424,328L470,302L544,267L625,264L626,260L598,257L558,258L553,259L485,283L454,302L451,305L442,310L434,316L339,403L333,410L309,441L312,444Z" stroke="#a26819" stroke-width="0.75" stroke-linecap="round" fill="#a26819" stroke-linejoin="round"/>
<path d="M337,415L343,413L342,408L337,415Z" stroke="#5a4226" stroke-width="0.75" stroke-linecap="round" fill="#5a4226" stroke-linejoin="round"/>
<path d="M343,413L366,386L361,386L342,408L343,413Z" stroke="#584227" stroke-width="0.75" stroke-linecap="round" fill="#584227" stroke-linejoin="round"/>
<path d="M330,410L333,410L339,403L336,403L330,410Z" stroke="#cb7e11" stroke-width="0.75" stroke-linecap="round" fill="#cb7e11" stroke-linejoin="round"/>
<path d="M336,403L339,403L434,316L433,314L336,403Z" stroke="#d18212" stroke-width="0.75" stroke-linecap="round" fill="#d18212" stroke-linejoin="round"/>
<path d="M361,386L366,386L373,378L362,384L361,386Z" stroke="#725124" stroke-width="0.75" stroke-linecap="round" fill="#725124" stroke-linejoin="round"/>
<path d="M794,386L796,386L759,343L794,386Z" stroke="#523a1c" stroke-width="0.75" stroke-linecap="round" fill="#523a1c" stroke-linejoin="round"/>
<path d="M362,384L373,378L380,369L378,366L362,384Z" stroke="#8f6120" stroke-width="0.75" stroke-linecap="round" fill="#8f6120" stroke-linejoin="round"/>
<path d="M380,369L381,368L406,344L406,341L378,366L380,369Z" stroke="#8f6124" stroke-width="0.75" stroke-linecap="round" fill="#8f6124" stroke-linejoin="round"/>
<path d="M381,368L471,307L470,302L424,328L406,344L381,368Z" stroke="#684e30" stroke-width="0.75" stroke-linecap="round" fill="#684e30" stroke-linejoin="round"/>
<path d="M406,344L424,328L406,341L406,344Z" stroke="#875e2a" stroke-width="0.75" stroke-linecap="round" fill="#875e2a" stroke-linejoin="round"/>
<path d="M741,328L747,328L747,326L746,326L736,316L735,316L730,312L728,312L722,306L741,328Z" stroke="#5b401a" stroke-width="0.75" stroke-linecap="round" fill="#5b401a" stroke-linejoin="round"/>
<path d="M746,326L747,326L738,315L736,316L746,326Z" stroke="#774e14" stroke-width="0.75" stroke-linecap="round" fill="#774e14" stroke-linejoin="round"/>
<path d="M434,316L442,310L441,308L433,314L434,316Z" stroke="#c97e17" stroke-width="0.75" stroke-linecap="round" fill="#c97e17" stroke-linejoin="round"/>
<path d="M735,316L736,316L738,315L733,310L730,312L735,316Z" stroke="#774e14" stroke-width="0.75" stroke-linecap="round" fill="#774e14" stroke-linejoin="round"/>
<path d="M728,312L730,312L733,310L656,271L654,271L649,269L644,272L702,296L722,306L728,312Z" stroke="#784e14" stroke-width="0.75" stroke-linecap="round" fill="#784e14" stroke-linejoin="round"/>
<path d="M442,310L451,305L450,303L441,308L442,310Z" stroke="#c67c17" stroke-width="0.75" stroke-linecap="round" fill="#c67c17" stroke-linejoin="round"/>
<path d="M472,308L606,270L637,276L656,281L678,289L702,296L644,272L643,272L641,268L638,268L630,269L609,267L602,267L602,266L544,267L470,302L471,307L472,308Z" stroke="#584023" stroke-width="0.75" stroke-linecap="round" fill="#584023" stroke-linejoin="round"/>
<path d="M451,305L454,302L450,303L451,305Z" stroke="#c57b17" stroke-width="0.75" stroke-linecap="round" fill="#c57b17" stroke-linejoin="round"/>
<path d="M485,283L553,259L546,257L485,283Z" stroke="#cc7d0d" stroke-width="0.75" stroke-linecap="round" fill="#cc7d0d" stroke-linejoin="round"/>
<path d="M643,272L644,272L649,269L641,268L643,272Z" stroke="#7c4f13" stroke-width="0.75" stroke-linecap="round" fill="#7c4f13" stroke-linejoin="round"/>
<path d="M654,271L656,271L662,271L636,266L638,268L641,268L649,269L654,271Z" stroke="#c0760c" stroke-width="0.75" stroke-linecap="round" fill="#c0760c" stroke-linejoin="round"/>
<path d="M630,269L638,268L636,266L625,264L544,267L602,266L609,267L630,269Z" stroke="#7b4e13" stroke-width="0.75" stroke-linecap="round" fill="#7b4e13" stroke-linejoin="round"/>
<path d="M602,267L609,267L602,266L602,267Z" stroke="#000000" stroke-width="0.75" stroke-linecap="round" fill="#000000" stroke-linejoin="round"/>
<path d="M553,259L558,258L554,256L546,257L553,259Z" stroke="#d07f0a" stroke-width="0.75" stroke-linecap="round" fill="#d07f0a" stroke-linejoin="round"/>
<path d="M558,258L598,257L554,256L558,258Z" stroke="#d48109" stroke-width="0.75" stroke-linecap="round" fill="#d48109" stroke-linejoin="round"/>
</g>
</svg>
